<svg xmlns="http://www.w3.org/2000/svg" style="display: none;">
  <defs>
<symbol id="katakana-project" viewBox="0 0 262.57 66.95">
  <defs>
    <style>
      .cls-1, .cls-2 {
        stroke-width: 0px;
      }

      .cls-2 {
        fill: #231f20;
      }
    </style>
  </defs>
  <g>
    <path class="cls-1" d="M37.8,63.4c-3.35-4.82-7.77-9.62-13.13-14.26-5.84-5.24-11.73-9.35-17.53-12.24l-1.25-.63,5.89-6.66.72.33c5.11,2.31,10.82,6.04,16.98,11.1,10.75-8.71,17.07-16.8,18.82-24.09H1.08v-8.64h58.14v8.02l-.05.15c-1.63,5.42-4.68,10.9-9.07,16.3-4.07,5.19-8.72,9.84-13.82,13.83,4.76,4.19,8.27,7.83,10.44,10.82l.66.91-8.98,5.92-.6-.86Z"/>
    <path class="cls-2" d="M58.14,9.38v6.79c-1.59,5.31-4.56,10.62-8.88,15.93-4.33,5.51-9.22,10.33-14.68,14.46,5.23,4.53,8.99,8.36,11.27,11.51l-7.17,4.72c-3.41-4.91-7.85-9.74-13.31-14.46-5.92-5.31-11.84-9.44-17.75-12.39l4.44-5.02c5.23,2.36,11.04,6.2,17.41,11.51,12.06-9.63,18.78-18.49,20.14-26.55H2.15v-6.49h55.99M60.29,7.23H0v10.79h46.87c-2.06,6.55-7.9,13.81-17.4,21.63-5.97-4.84-11.53-8.43-16.54-10.69l-1.45-.65-1.05,1.19-4.44,5.02-1.86,2.1,2.51,1.25c5.71,2.85,11.52,6.91,17.28,12.07,5.33,4.6,9.68,9.33,12.98,14.08l1.2,1.72,1.75-1.15,7.17-4.72,1.88-1.24-1.32-1.82c-2.06-2.85-5.3-6.26-9.64-10.15,4.77-3.86,9.14-8.3,13.01-13.23,4.46-5.48,7.58-11.09,9.24-16.64l.09-.3V7.23h0Z"/>
  </g>
  <g>
    <rect class="cls-1" x="67.31" y="27.19" width="61.55" height="8.64"/>
    <path class="cls-2" d="M127.78,28.27v6.49h-59.4v-6.49h59.4M129.94,26.11h-63.71v10.79h63.71v-10.79h0Z"/>
  </g>
  <g>
    <path class="cls-1" d="M147.16,56.65l1.25-.23c14.51-2.7,25.58-7.67,32.9-14.76,6.19-5.92,10.45-14.07,12.67-24.24l.33-1.53,9.13,6.01-.21.75c-3.24,11.78-9.1,21.19-17.43,27.99-8.28,6.96-19.94,11.81-34.63,14.39l-.89.16-3.14-8.53ZM158.87,36.19c-5.14-4.06-10.59-7.49-16.19-10.2l-1.24-.6,5.83-6.98.73.31c7.11,2.97,13.05,6.3,17.66,9.88l.93.72-6.93,7.49-.78-.62ZM167.39,18.77c-4.67-3.84-10.21-7.17-16.47-9.88l-1.32-.57,5.87-7.02.73.31c7.11,2.97,13.15,6.29,17.98,9.86l.99.73-7.01,7.2-.76-.63Z"/>
    <path class="cls-2" d="M155.78,2.6c7.05,2.95,12.97,6.2,17.75,9.74l-5.46,5.61c-4.78-3.93-10.36-7.27-16.73-10.03l4.44-5.31M195.04,17.64l7.17,4.72c-3.19,11.61-8.88,20.75-17.07,27.44-8.19,6.89-19.58,11.6-34.14,14.16l-2.39-6.49c14.79-2.75,25.95-7.77,33.46-15.05,6.37-6.09,10.7-14.36,12.97-24.78M147.59,19.71c7.05,2.95,12.86,6.2,17.41,9.74l-5.46,5.9c-5.24-4.13-10.7-7.57-16.39-10.33l4.44-5.31M155.15,0l-1.02,1.22-4.44,5.31-1.85,2.21,2.64,1.14c6.17,2.67,11.62,5.94,16.22,9.72l1.53,1.26,1.38-1.42,5.46-5.61,1.72-1.76-1.98-1.47c-4.89-3.62-11.02-6.99-18.2-9.99l-1.46-.61h0ZM193.61,14.12l-.67,3.06c-2.17,9.95-6.33,17.92-12.36,23.69-7.18,6.96-18.06,11.83-32.36,14.49l-2.51.47.88,2.39,2.39,6.49.62,1.69,1.77-.31c14.88-2.61,26.71-7.54,35.15-14.63,8.48-6.92,14.46-16.52,17.76-28.52l.41-1.51-1.31-.86-7.17-4.72-2.62-1.72h0ZM146.95,17.11l-1.02,1.22-4.44,5.31-1.77,2.11,2.48,1.2c5.53,2.68,10.91,6.07,15.99,10.08l1.56,1.23,1.35-1.46,5.46-5.9,1.59-1.72-1.85-1.44c-4.68-3.64-10.71-7.01-17.9-10.02l-1.46-.61h0Z"/>
  </g>
  <g>
    <path class="cls-1" d="M223.32,36.62l-12.55,2.93-2.87-7.02,13.42-3.27-4.81-15.75,8.3-1.19,4.75,15.26,28.52-6.75,3.32,6.46-.14.43c-2.08,6.39-5.81,13.05-11.1,19.8l-.56.71-7.44-4.02.88-1.01c4.06-4.68,6.97-9.18,8.68-13.42l-20.17,4.87,8.91,29.91-8.29,1.19-8.85-29.13Z"/>
    <path class="cls-2" d="M224.06,13.51l4.78,15.34,28.68-6.79,2.73,5.31c-2.05,6.3-5.69,12.79-10.92,19.47l-5.46-2.95c4.78-5.5,7.96-10.72,9.56-15.64l-23.21,5.61,8.88,29.8-6.14.89-8.88-29.21-12.63,2.95-2.05-5.02,13.31-3.25-4.78-15.64,6.15-.89M225.57,11.12l-1.82.26-6.15.89-2.48.36.73,2.4,4.11,13.46-11.1,2.71-2.43.59.94,2.31,2.05,5.02.69,1.7,1.79-.42,10.67-2.49,8.29,27.28.54,1.77,1.83-.26,6.14-.89,2.47-.36-.71-2.39-8.23-27.63,16.95-4.09c-1.71,3.55-4.26,7.28-7.62,11.15l-1.76,2.03,2.36,1.28,5.46,2.95,1.6.86,1.12-1.43c5.37-6.86,9.16-13.63,11.28-20.13l.28-.85-.41-.8-2.73-5.31-.77-1.5-1.64.39-26.73,6.32-4.18-13.43-.55-1.75h0Z"/>
  </g>
</symbol>


    <symbol id="katakana-profile" viewBox="0 0 136 766">
      <path d="M33 651.3c-.2-9-7.2-16.1-16.3-16.1-9 0-16.3 7.2-16.3 16.2A16 16 0 0 0 16 667.6V741c0 14.7-.3 18.7-1.2 24.2h26c-.6-5-.8-8.5-.9-23.8v-60.2c33.6 8.2 59 34.2 71 72.5 9-9.4 14.5-13.4 24.2-18.2-20.5-45.8-49.5-70.8-95.8-82.6l-3.7-.9-1.5-.4-.5-.2-.6-.1Zm-24.5.1c0-4.4 3.8-8.2 8.2-8.2a8.2 8.2 0 0 1 0 16.4 8.3 8.3 0 0 1-8.2-8.2Zm111-104.5h9.7v-26c-5.8.7-12.7 1-23.8 1h-73c-6.8 0-12-.2-17-.5.6 6.8.6 9 .6 17.9v77.6c0 9.5-.1 12.4-.6 17.4 6-.4 10.4-.6 16.6-.6h74c10.7 0 15.6.3 23.5 1.2v-26.2h-10v-61.8Zm-23 0v61.8H39v-61.8h57.5Zm-83-143.3c1.3 3.2 1.8 5.8 1.8 10.5v68.4a139 139 0 0 1-1.2 24.7h26c-.6-7.7-.8-10.3-.8-24.2v-59.8a89 89 0 0 1 42.7 24 116.1 116.1 0 0 1 28.2 48.4 75.8 75.8 0 0 1 24.2-18.1c-11.7-25.3-23.2-41.5-39.2-54.9-16.4-13.8-34.4-22.4-61.2-28.9a19.1 19.1 0 0 1-8-3l-12.6 13Zm13.9-106c7.3 4.4 17 14.5 25.8 26.7 12.2 17 21.1 36.2 27.3 58.4a70 70 0 0 1 20.5-12.3 172.2 172.2 0 0 0-17-37.6h30c10.6 0 14.3.3 20 1v-25.6c-5.2.7-10.6.9-20 .9H69.8a160.4 160.4 0 0 0-23.6-26.7c-3.4-3.1-3.4-3.1-5-5l-13.8 20.2ZM83 262.3c-.8-8.8-.9-13.5-.9-29.7v-68.5c0-16.4.1-22.8.9-29.7H55.2c1 9.7 1.3 15.1 1.3 29.5v68.9c0 15-.3 22.7-1.3 29.5H83ZM8.8 114c3.7-.4 7-.6 13.2-.6 37.3 0 55.2 2.3 69.3 9 9.5 4.6 15.6 9 23 17.2a78.1 78.1 0 0 1 20-20.6 95.8 95.8 0 0 0-28.7-20c-15.7-6.9-31.7-9.8-61.8-10.6-28.5-1-28.5-1-33.4-1.6L8.8 114Zm-.7-41a90 90 0 0 1 11.2-.6h5.2l85.2.7c6 0 8.4.3 12.1 1.6l13-12.4c-1.2-1.8-1.6-3-3-7A86.2 86.2 0 0 0 115.4 25 88.2 88.2 0 0 0 78.8.2a98.4 98.4 0 0 1-19 19.2 73 73 0 0 1 24.6 11.2 55 55 0 0 1 15.8 17.3l-75.4-.7A103 103 0 0 1 8 46v27.1Z" />
    </symbol>
  </defs>
</svg>
