<svg xmlns="http://www.w3.org/2000/svg" style="display: none;">
  <defs>
    <symbol id="send" viewBox="0 0 24 24">
      <path d="m2 21 21-9L2 3v7l15 2-15 2v7Z"/>
    </symbol>
    <symbol id="arrow-right" viewBox="0 0 24 24">
      <path d="m14.2 4.8 6.5 6.5.7.7-.7.7-6.5 6.5-1.4-1.4 4.8-4.8H3v-2h14.6l-4.8-4.8 1.4-1.4Z"/>
    </symbol>
    <symbol id="chevron-right" viewBox="0 0 24 24">
      <path d="M13.6 12 7.8 6.2l1.4-1.4 6.5 6.5.7.7-.7.7-6.5 6.5-1.4-1.4 5.8-5.8Z"/>
    </symbol>
    <symbol id="instagram" viewBox="0 0 24 24">
      <path d="M12 2.163c3.204 0 3.584.012 4.85.07 3.252.148 4.771 1.691 4.919 4.919.058 1.265.069 1.645.069 4.849 0 3.205-.012 3.584-.069 4.849-.149 3.225-1.664 4.771-4.919 4.919-1.266.058-1.644.07-4.85.07-3.204 0-3.584-.012-4.849-.07-3.26-.149-4.771-1.699-4.919-4.92-.058-1.265-.07-1.644-.07-4.849 0-3.204.013-3.583.07-4.849.149-3.227 1.664-4.771 4.919-4.919 1.266-.057 1.645-.069 4.849-.069zm0-2.163c-3.259 0-3.667.014-4.947.072-4.358.2-6.78 2.618-6.98 6.98-.059 1.281-.073 1.689-.073 4.948 0 3.259.014 3.668.072 4.948.2 4.358 2.618 6.78 6.98 6.98 1.281.058 1.689.072 4.948.072 3.259 0 3.668-.014 4.948-.072 4.354-.2 6.782-2.618 6.979-6.98.059-1.28.073-1.689.073-4.948 0-3.259-.014-3.667-.072-4.947-.196-4.354-2.617-6.78-6.979-6.98-1.281-.059-1.69-.073-4.949-.073zm0 5.838c-3.403 0-6.162 2.759-6.162 6.162s2.759 6.163 6.162 6.163 6.162-2.759 6.162-6.163c0-3.403-2.759-6.162-6.162-6.162zm0 10.162c-2.209 0-4-1.79-4-4 0-2.209 1.791-4 4-4s4 1.791 4 4c0 2.21-1.791 4-4 4zm6.406-11.845c-.796 0-1.441.645-1.441 1.44s.645 1.44 1.441 1.44c.795 0 1.439-.645 1.439-1.44s-.644-1.44-1.439-1.44z"/>
      </symbol>
    <symbol id="github" viewBox="0 0 24 24">
      <path d="M12 2a10 10 0 0 0-3.2 19.5c.5 0 .7-.2.7-.5v-1.7C6.7 20 6.1 18 6.1 18c-.4-1.2-1-1.5-1-1.5-1-.6 0-.6 0-.6 1 0 1.5 1 1.5 1 .9 1.6 2.4 1.1 3 .9 0-.7.3-1.1.6-1.4-2.2-.2-4.6-1-4.6-4.9 0-1.1.4-2 1-2.7 0-.3-.4-1.3.2-2.7 0 0 .8-.2 2.7 1a9.4 9.4 0 0 1 5 0c2-1.2 2.8-1 2.8-1 .5 1.4.1 2.4 0 2.7.7.7 1 1.6 1 2.7 0 3.8-2.3 4.7-4.5 5 .4.2.7.8.7 1.8V21c0 .3.2.6.7.5A10 10 0 0 0 12 2Z"/>
    </symbol>
    <symbol id="menu" viewBox="0 0 24 24">
      <path d="M22 6H2V4h20v2ZM2 13h16v-2H2v2Zm0 7h20v-2H2v2Z"/>
    </symbol>
    <symbol id="behance" viewBox="0 0 24 24">
      <path d="M22 7h-7v-2h7v2zm1.726 10c-.442 1.297-2.029 3-5.101 3-3.074 0-5.564-1.729-5.564-5.675 0-3.91 2.325-5.92 5.466-5.92 3.082 0 4.964 1.782 5.375 4.426.078.506.109 1.188.095 2.14h-8.027c.13 3.211 3.483 3.312 4.588 2.029h3.168zm-7.686-4h4.965c-.105-1.547-1.136-2.219-2.477-2.219-1.466 0-2.277.768-2.488 2.219zm-9.574 6.988h-6.466v-14.967h6.953c5.476.081 5.58 5.444 2.72 6.906 3.461 1.26 3.577 8.061-3.207 8.061zm-3.466-8.988h3.584c2.508 0 2.906-3-.312-3h-3.272v3zm3.391 3h-3.391v3.016h3.341c3.055 0 2.868-3.016.05-3.016z"/>
      </symbol>
    <symbol id="copy" viewBox="0 0 24 24">
      <path d="M3 2h12v4H7v10H3V2Zm6 20V8h12v11l-3 3H9Z"/>
    </symbol>
    <symbol id="error" viewBox="0 0 24 24">
      <path d="M19.7 19H4.3L12 5l7.7 14ZM11.1 2.5l-9.4 17 1 1.5h18.7l.9-1.5-9.4-17H11ZM11 14v-4h2v4h-2Zm0 3v-2h2v2h-2Z"/>
    </symbol>
    <symbol id="arrow-left" viewBox="0 0 24 24">
      <path d="m9.8 19.2-6.5-6.5-.7-.7.7-.7 6.5-6.5 1.4 1.4L6.4 11H21v2H6.4l4.8 4.8-1.4 1.4Z"/>
    </symbol>
    <symbol id="check" viewBox="0 0 24 24">
      <path d="m20.2 7.2-10 10-.7.7-.7-.7-5-5 1.4-1.4L9.5 15l9.3-9.3 1.4 1.4Z"/>
    </symbol>
    <symbol id="link" viewBox="0 0 24 24">
      <path d="M9 4 8 5v2h2V6h10v7H10v-2H8v3l1 1h12l1-1V5l-1-1H9Zm2 4H3L2 9v9l1 1h12l1-1v-2h-2v1H4v-7h10v2h2V9l-1-1h-4Z"/>
    </symbol>
    <symbol id="close" viewBox="0 0 24 24">
      <path d="M19 6.4 17.6 5 12 10.6 6.4 5 5 6.4l5.6 5.6L5 17.6 6.4 19l5.6-5.6 5.6 5.6 1.4-1.4-5.6-5.6L19 6.4Z"/>
    </symbol>
    <symbol id="pause" viewBox="0 0 24 24">
      <path d="M6 19h4V5H6v14Zm8-14v14h4V5h-4Z"/>
    </symbol>
    <symbol id="play" viewBox="0 0 24 24">
      <path d="M8 5v14l11-7L8 5Z"/>
    </symbol>
  </defs>
</svg>